# xmcd
# 
# Track frame offsets:
#     150
#     13496
#     29846
#     44610
#     60226
#     78871
#     96320
#     107658
#     126917
#     143681
# 
# Disc length: 2142
# 
# Revision: 0
# Processed by: cddbd v1.5.2PL0 Copyright (c) Steve Scherf et al.
# Submitted via: fre:ac v1.0.27
# 
DISCID=88085c0a
DTITLE=Albert Hammond Jr - Francis Trouble
DYEAR=2018
DGENRE=Post-Rock
TTITLE0=DvsL
TTITLE1=Far Away Truths
TTITLE2=Muted Beatings
TTITLE3=Set To Attack
TTITLE4=Tea For Two
TTITLE5=Stop And Go
TTITLE6=Screamer
TTITLE7=Rocky's Late Night
TTITLE8=Strangers
TTITLE9=Harder, Harder, Harder
EXTD=
EXTT0=
EXTT1=
EXTT2=
EXTT3=
EXTT4=
EXTT5=
EXTT6=
EXTT7=
EXTT8=
EXTT9=
PLAYORDER=
